<svg xmlns="http://www.w3.org/2000/svg" viewBox="0 0 400 300" fill="none">
  <defs>
    <linearGradient id="sky" x1="0%" y1="0%" x2="0%" y2="100%">
      <stop offset="0%" style="stop-color:#e8f4f0"/>
      <stop offset="100%" style="stop-color:#c8ddd6"/>
    </linearGradient>
    <linearGradient id="house" x1="0%" y1="0%" x2="0%" y2="100%">
      <stop offset="0%" style="stop-color:#f5f0e8"/>
      <stop offset="100%" style="stop-color:#e8e0d4"/>
    </linearGradient>
  </defs>
  
  <rect width="400" height="300" fill="url(#sky)"/>
  
  <ellipse cx="200" cy="280" rx="150" ry="20" fill="#a8c4b8" opacity="0.4"/>
  
  <path d="M200 60 L320 140 L320 260 L80 260 L80 140 Z" fill="url(#house)" stroke="#8b7355" stroke-width="2"/>
  
  <path d="M200 60 L80 140 L320 140 Z" fill="#9b5c4c" stroke="#7a4a3d" stroke-width="2"/>
  
  <rect x="160" y="180" width="80" height="80" rx="4" fill="#5c4a3a" stroke="#4a3a2d" stroke-width="2"/>
  <rect x="175" y="195" width="20" height="25" fill="#87a08b" opacity="0.8"/>
  <rect x="205" y="195" width="20" height="25" fill="#87a08b" opacity="0.8"/>
  <circle cx="230" cy="225" r="4" fill="#c9a962"/>
  
  <rect x="100" y="160" width="40" height="50" rx="2" fill="#87a08b" stroke="#5c7a62" stroke-width="1.5"/>
  <line x1="120" y1="160" x2="120" y2="210" stroke="#5c7a62" stroke-width="1"/>
  <line x1="100" y1="185" x2="140" y2="185" stroke="#5c7a62" stroke-width="1"/>
  
  <rect x="260" y="160" width="40" height="50" rx="2" fill="#87a08b" stroke="#5c7a62" stroke-width="1.5"/>
  <line x1="280" y1="160" x2="280" y2="210" stroke="#5c7a62" stroke-width="1"/>
  <line x1="260" y1="185" x2="300" y2="185" stroke="#5c7a62" stroke-width="1"/>
  
  <ellipse cx="90" cy="255" rx="25" ry="15" fill="#7ba07f"/>
  <ellipse cx="85" cy="250" rx="18" ry="12" fill="#8cb890"/>
  <ellipse cx="310" cy="255" rx="25" ry="15" fill="#7ba07f"/>
  <ellipse cx="315" cy="250" rx="18" ry="12" fill="#8cb890"/>
  
  <circle cx="350" cy="50" r="25" fill="#c9a962" opacity="0.3"/>
  
  <text x="200" y="285" text-anchor="middle" fill="#5c7a62" font-family="serif" font-size="12" font-style="italic">Adult Family Home</text>
</svg>
