<svg width="800" height="600" viewBox="0 0 800 600" xmlns="http://www.w3.org/2000/svg">
  <rect width="800" height="600" fill="#e6f7f5"/>
  
  <g transform="translate(400, 260)">
    
    <path d="M-100 60 L-100 -20 L0 -80 L100 -20 L100 60 Z" 
          fill="none" 
          stroke="#0d9488" 
          stroke-width="3"
          stroke-linecap="round"
          stroke-linejoin="round"/>
    
    <path d="M-120 -20 L0 -100 L120 -20" 
          fill="none" 
          stroke="#0d9488" 
          stroke-width="3"
          stroke-linecap="round"
          stroke-linejoin="round"/>
    
    <rect x="-20" y="0" width="40" height="60" rx="3"
          fill="none" 
          stroke="#0d9488" 
          stroke-width="2"/>
    
    <circle cx="12" cy="30" r="4" fill="#0d9488"/>
    
    <rect x="-75" y="-10" width="35" height="35" rx="2"
          fill="none" 
          stroke="#0d9488" 
          stroke-width="2"/>
    <line x1="-57.5" y1="-10" x2="-57.5" y2="25" stroke="#0d9488" stroke-width="1.5"/>
    <line x1="-75" y1="7.5" x2="-40" y2="7.5" stroke="#0d9488" stroke-width="1.5"/>
    
    <rect x="40" y="-10" width="35" height="35" rx="2"
          fill="none" 
          stroke="#0d9488" 
          stroke-width="2"/>
    <line x1="57.5" y1="-10" x2="57.5" y2="25" stroke="#0d9488" stroke-width="1.5"/>
    <line x1="40" y1="7.5" x2="75" y2="7.5" stroke="#0d9488" stroke-width="1.5"/>
    
    <path d="M0 -35 
             C-4 -42 -15 -42 -15 -30 
             C-15 -20 0 -10 0 -10 
             C0 -10 15 -20 15 -30 
             C15 -42 4 -42 0 -35 Z" 
          fill="#0d9488" 
          opacity="0.6"/>
    
    <g transform="translate(-140, 20)">
      <circle cx="0" cy="-30" r="12" fill="none" stroke="#0d9488" stroke-width="2"/>
      <path d="M0 -18 L0 20 M-15 0 L15 0 M0 20 L-12 50 M0 20 L12 50" 
            stroke="#0d9488" stroke-width="2" stroke-linecap="round"/>
    </g>
    
    <g transform="translate(140, 20)">
      <circle cx="0" cy="-30" r="12" fill="none" stroke="#0d9488" stroke-width="2"/>
      <path d="M0 -18 L0 10" stroke="#0d9488" stroke-width="2" stroke-linecap="round"/>
      <path d="M-15 0 L10 0" stroke="#0d9488" stroke-width="2" stroke-linecap="round"/>
      <circle cx="0" cy="35" r="18" fill="none" stroke="#0d9488" stroke-width="2"/>
      <path d="M-5 10 L-5 25 L10 25" stroke="#0d9488" stroke-width="2" stroke-linecap="round"/>
    </g>
    
  </g>
  
  <text x="400" y="420" text-anchor="middle" font-family="Georgia, serif" font-size="36" font-weight="500" fill="#0d9488">
    Okapi Care Network
  </text>
  
  <text x="400" y="460" text-anchor="middle" font-family="Arial, sans-serif" font-size="16" fill="#5f9ea0">
    Adult Family Home
  </text>
  
  <line x1="300" y1="485" x2="500" y2="485" stroke="#0d9488" stroke-width="1" opacity="0.3"/>
  
  <text x="400" y="520" text-anchor="middle" font-family="Arial, sans-serif" font-size="14" fill="#5f9ea0" letter-spacing="3">
    WASHINGTON STATE
  </text>
  
</svg>