<svg width="800" height="600" viewBox="0 0 800 600" xmlns="http://www.w3.org/2000/svg">
  <rect width="800" height="600" fill="#e6f7f5"/>
  
  <g transform="translate(400, 250)">
    
    <rect x="-120" y="-80" width="240" height="160" rx="4"
          fill="none" 
          stroke="#0d9488" 
          stroke-width="3"/>
    
    <line x1="-130" y1="-80" x2="130" y2="-80" stroke="#0d9488" stroke-width="4"/>
    
    <rect x="-100" y="-60" width="30" height="30" rx="2" fill="none" stroke="#0d9488" stroke-width="2"/>
    <rect x="-55" y="-60" width="30" height="30" rx="2" fill="none" stroke="#0d9488" stroke-width="2"/>
    <rect x="25" y="-60" width="30" height="30" rx="2" fill="none" stroke="#0d9488" stroke-width="2"/>
    <rect x="70" y="-60" width="30" height="30" rx="2" fill="none" stroke="#0d9488" stroke-width="2"/>
    
    <rect x="-100" y="-15" width="30" height="30" rx="2" fill="none" stroke="#0d9488" stroke-width="2"/>
    <rect x="-55" y="-15" width="30" height="30" rx="2" fill="none" stroke="#0d9488" stroke-width="2"/>
    <rect x="25" y="-15" width="30" height="30" rx="2" fill="none" stroke="#0d9488" stroke-width="2"/>
    <rect x="70" y="-15" width="30" height="30" rx="2" fill="none" stroke="#0d9488" stroke-width="2"/>
    
    <rect x="-25" y="25" width="50" height="55" rx="3" fill="none" stroke="#0d9488" stroke-width="2"/>
    <line x1="0" y1="25" x2="0" y2="80" stroke="#0d9488" stroke-width="1.5"/>
    
    <path d="M-35 25 L0 5 L35 25" fill="none" stroke="#0d9488" stroke-width="2"/>
    
    <g transform="translate(-160, 40)">
      <circle cx="0" cy="-25" r="10" fill="none" stroke="#0d9488" stroke-width="2"/>
      <path d="M0 -15 L0 15 M-12 -5 L12 -5 M0 15 L-10 40 M0 15 L10 40" 
            stroke="#0d9488" stroke-width="2" stroke-linecap="round"/>
    </g>
    
    <g transform="translate(160, 40)">
      <circle cx="0" cy="-25" r="10" fill="none" stroke="#0d9488" stroke-width="2"/>
      <path d="M0 -15 L0 15 M-12 -5 L12 -5 M0 15 L-10 40 M0 15 L10 40" 
            stroke="#0d9488" stroke-width="2" stroke-linecap="round"/>
    </g>
    
    <path d="M0 -100 
             C-5 -108 -18 -108 -18 -94 
             C-18 -82 0 -70 0 -70 
             C0 -70 18 -82 18 -94 
             C18 -108 5 -108 0 -100 Z" 
          fill="#0d9488" 
          opacity="0.5"/>
    
  </g>
  
  <text x="400" y="420" text-anchor="middle" font-family="Georgia, serif" font-size="36" font-weight="500" fill="#0d9488">
    Okapi Care Network
  </text>
  
  <text x="400" y="460" text-anchor="middle" font-family="Arial, sans-serif" font-size="16" fill="#5f9ea0">
    Assisted Living Facility
  </text>
  
  <line x1="300" y1="485" x2="500" y2="485" stroke="#0d9488" stroke-width="1" opacity="0.3"/>
  
  <text x="400" y="520" text-anchor="middle" font-family="Arial, sans-serif" font-size="14" fill="#5f9ea0" letter-spacing="3">
    WASHINGTON STATE
  </text>
  
</svg>