<svg xmlns="http://www.w3.org/2000/svg" viewBox="0 0 400 300" fill="none">
  <defs>
    <linearGradient id="sky2" x1="0%" y1="0%" x2="0%" y2="100%">
      <stop offset="0%" style="stop-color:#e8f4f0"/>
      <stop offset="100%" style="stop-color:#c8ddd6"/>
    </linearGradient>
    <linearGradient id="building" x1="0%" y1="0%" x2="0%" y2="100%">
      <stop offset="0%" style="stop-color:#f5f0e8"/>
      <stop offset="100%" style="stop-color:#ddd5c8"/>
    </linearGradient>
  </defs>
  
  <rect width="400" height="300" fill="url(#sky2)"/>
  
  <ellipse cx="200" cy="275" rx="180" ry="25" fill="#a8c4b8" opacity="0.4"/>
  
  <rect x="60" y="90" width="280" height="165" fill="url(#building)" stroke="#8b7355" stroke-width="2"/>
  
  <rect x="60" y="70" width="280" height="25" fill="#9b5c4c" stroke="#7a4a3d" stroke-width="2"/>
  
  <g>
    <rect x="85" y="110" width="30" height="40" rx="2" fill="#87a08b" stroke="#5c7a62" stroke-width="1.5"/>
    <line x1="100" y1="110" x2="100" y2="150" stroke="#5c7a62" stroke-width="1"/>
    
    <rect x="135" y="110" width="30" height="40" rx="2" fill="#87a08b" stroke="#5c7a62" stroke-width="1.5"/>
    <line x1="150" y1="110" x2="150" y2="150" stroke="#5c7a62" stroke-width="1"/>
    
    <rect x="185" y="110" width="30" height="40" rx="2" fill="#87a08b" stroke="#5c7a62" stroke-width="1.5"/>
    <line x1="200" y1="110" x2="200" y2="150" stroke="#5c7a62" stroke-width="1"/>
    
    <rect x="235" y="110" width="30" height="40" rx="2" fill="#87a08b" stroke="#5c7a62" stroke-width="1.5"/>
    <line x1="250" y1="110" x2="250" y2="150" stroke="#5c7a62" stroke-width="1"/>
    
    <rect x="285" y="110" width="30" height="40" rx="2" fill="#87a08b" stroke="#5c7a62" stroke-width="1.5"/>
    <line x1="300" y1="110" x2="300" y2="150" stroke="#5c7a62" stroke-width="1"/>
  </g>
  
  <g>
    <rect x="85" y="165" width="30" height="40" rx="2" fill="#87a08b" stroke="#5c7a62" stroke-width="1.5"/>
    <line x1="100" y1="165" x2="100" y2="205" stroke="#5c7a62" stroke-width="1"/>
    
    <rect x="135" y="165" width="30" height="40" rx="2" fill="#87a08b" stroke="#5c7a62" stroke-width="1.5"/>
    <line x1="150" y1="165" x2="150" y2="205" stroke="#5c7a62" stroke-width="1"/>
    
    <rect x="235" y="165" width="30" height="40" rx="2" fill="#87a08b" stroke="#5c7a62" stroke-width="1.5"/>
    <line x1="250" y1="165" x2="250" y2="205" stroke="#5c7a62" stroke-width="1"/>
    
    <rect x="285" y="165" width="30" height="40" rx="2" fill="#87a08b" stroke="#5c7a62" stroke-width="1.5"/>
    <line x1="300" y1="165" x2="300" y2="205" stroke="#5c7a62" stroke-width="1"/>
  </g>
  
  <rect x="175" y="175" width="50" height="80" rx="4" fill="#5c4a3a" stroke="#4a3a2d" stroke-width="2"/>
  <circle cx="215" cy="220" r="4" fill="#c9a962"/>
  <rect x="170" y="160" width="60" height="15" fill="#8b7355"/>
  
  <ellipse cx="55" cy="250" rx="20" ry="12" fill="#7ba07f"/>
  <ellipse cx="345" cy="250" rx="20" ry="12" fill="#7ba07f"/>
  
  <circle cx="350" cy="50" r="25" fill="#c9a962" opacity="0.3"/>
  
  <text x="200" y="285" text-anchor="middle" fill="#5c7a62" font-family="serif" font-size="12" font-style="italic">Assisted Living Facility</text>
</svg>
