<svg width="800" height="600" viewBox="0 0 800 600" xmlns="http://www.w3.org/2000/svg">
  <rect width="800" height="600" fill="#e6f7f5"/>
  
  <g transform="translate(400, 240)">
    
    <path d="M-120 50 
             Q-140 20 -120 -10 
             Q-100 -30 -70 -20
             L-40 0" 
          fill="none" 
          stroke="#0d9488" 
          stroke-width="3"
          stroke-linecap="round"/>
    
    <path d="M120 50 
             Q140 20 120 -10 
             Q100 -30 70 -20
             L40 0" 
          fill="none" 
          stroke="#0d9488" 
          stroke-width="3"
          stroke-linecap="round"/>
    
    <path d="M-70 40 Q0 80 70 40" 
          fill="none" 
          stroke="#0d9488" 
          stroke-width="3"
          stroke-linecap="round"/>
    
    <path d="M0 30 
             C-8 15 -40 15 -40 -20 
             C-40 -50 0 -60 0 -30 
             C0 -60 40 -50 40 -20 
             C40 15 8 15 0 30 Z" 
          fill="#0d9488" 
          opacity="0.3"
          stroke="#0d9488"
          stroke-width="2"/>
    
    <path d="M0 5 
             C-4 -2 -18 -2 -18 -18 
             C-18 -32 0 -38 0 -22 
             C0 -38 18 -32 18 -18 
             C18 -2 4 -2 0 5 Z" 
          fill="#0d9488" 
          opacity="0.5"/>
    
    <g stroke="#0d9488" stroke-width="2" opacity="0.3">
      <line x1="0" y1="-75" x2="0" y2="-95"/>
      <line x1="30" y1="-65" x2="45" y2="-80"/>
      <line x1="-30" y1="-65" x2="-45" y2="-80"/>
      <line x1="50" y1="-40" x2="70" y2="-50"/>
      <line x1="-50" y1="-40" x2="-70" y2="-50"/>
    </g>
    
    <g transform="translate(70, -80)" opacity="0.4">
      <path d="M0 0 Q10 -10 20 0 Q10 5 0 0" fill="#0d9488"/>
      <path d="M20 0 Q30 -5 35 5" fill="none" stroke="#0d9488" stroke-width="2"/>
    </g>
    
  </g>
  
  <text x="400" y="420" text-anchor="middle" font-family="Georgia, serif" font-size="36" font-weight="500" fill="#0d9488">
    Okapi Care Network
  </text>
  
  <text x="400" y="460" text-anchor="middle" font-family="Arial, sans-serif" font-size="16" fill="#5f9ea0">
    Hospice Care
  </text>
  
  <line x1="300" y1="485" x2="500" y2="485" stroke="#0d9488" stroke-width="1" opacity="0.3"/>
  
  <text x="400" y="520" text-anchor="middle" font-family="Arial, sans-serif" font-size="14" fill="#5f9ea0" letter-spacing="3">
    WASHINGTON STATE
  </text>
  
</svg>