<svg width="800" height="600" viewBox="0 0 800 600" xmlns="http://www.w3.org/2000/svg">
  <rect width="800" height="600" fill="#e6f7f5"/>
  
  <g transform="translate(400, 250)">
    
    <rect x="-100" y="-60" width="200" height="140" rx="4"
          fill="none" 
          stroke="#0d9488" 
          stroke-width="3"/>
    
    <rect x="-20" y="-50" width="40" height="15" rx="2" fill="#0d9488" opacity="0.4"/>
    <rect x="-7" y="-58" width="14" height="30" rx="2" fill="#0d9488" opacity="0.4"/>
    
    <rect x="-80" y="-20" width="35" height="30" rx="2" fill="none" stroke="#0d9488" stroke-width="2"/>
    <rect x="45" y="-20" width="35" height="30" rx="2" fill="none" stroke="#0d9488" stroke-width="2"/>
    <rect x="-80" y="25" width="35" height="30" rx="2" fill="none" stroke="#0d9488" stroke-width="2"/>
    <rect x="45" y="25" width="35" height="30" rx="2" fill="none" stroke="#0d9488" stroke-width="2"/>
    
    <rect x="-20" y="30" width="40" height="50" rx="2" fill="none" stroke="#0d9488" stroke-width="2"/>
    <path d="M0 45 L0 65 M-8 55 L8 55" stroke="#0d9488" stroke-width="2"/>
    
    <g transform="translate(-140, 30)">
      <circle cx="0" cy="-30" r="12" fill="none" stroke="#0d9488" stroke-width="2"/>
      <path d="M-10 -42 L10 -42 L8 -38 L-8 -38 Z" fill="#0d9488" opacity="0.5"/>
      <path d="M0 -18 L0 20 M-15 -5 L15 -5 M0 20 L-10 45 M0 20 L10 45" 
            stroke="#0d9488" stroke-width="2" stroke-linecap="round"/>
    </g>
    
    <g transform="translate(140, 30)">
      <circle cx="0" cy="-30" r="12" fill="none" stroke="#0d9488" stroke-width="2"/>
      <path d="M0 -18 L0 5" stroke="#0d9488" stroke-width="2"/>
      <path d="M-12 -8 L8 -8" stroke="#0d9488" stroke-width="2"/>
      <circle cx="0" cy="30" r="20" fill="none" stroke="#0d9488" stroke-width="2"/>
      <path d="M-8 5 L-8 20 L12 20" stroke="#0d9488" stroke-width="2" stroke-linecap="round"/>
      <circle cx="0" cy="30" r="5" fill="#0d9488" opacity="0.3"/>
    </g>
    
  </g>
  
  <text x="400" y="420" text-anchor="middle" font-family="Georgia, serif" font-size="36" font-weight="500" fill="#0d9488">
    Okapi Care Network
  </text>
  
  <text x="400" y="460" text-anchor="middle" font-family="Arial, sans-serif" font-size="16" fill="#5f9ea0">
    Skilled Nursing Facility
  </text>
  
  <line x1="300" y1="485" x2="500" y2="485" stroke="#0d9488" stroke-width="1" opacity="0.3"/>
  
  <text x="400" y="520" text-anchor="middle" font-family="Arial, sans-serif" font-size="14" fill="#5f9ea0" letter-spacing="3">
    WASHINGTON STATE
  </text>
  
</svg>