<svg xmlns="http://www.w3.org/2000/svg" viewBox="0 0 400 300" fill="none">
  <defs>
    <linearGradient id="sky3" x1="0%" y1="0%" x2="0%" y2="100%">
      <stop offset="0%" style="stop-color:#e8f4f0"/>
      <stop offset="100%" style="stop-color:#c8ddd6"/>
    </linearGradient>
    <linearGradient id="medical" x1="0%" y1="0%" x2="0%" y2="100%">
      <stop offset="0%" style="stop-color:#f8f8f8"/>
      <stop offset="100%" style="stop-color:#e8e8e8"/>
    </linearGradient>
  </defs>
  
  <rect width="400" height="300" fill="url(#sky3)"/>
  
  <ellipse cx="200" cy="275" rx="180" ry="25" fill="#a8c4b8" opacity="0.4"/>
  
  <rect x="50" y="80" width="300" height="175" fill="url(#medical)" stroke="#7a8b95" stroke-width="2"/>
  
  <rect x="50" y="60" width="300" height="25" fill="#5c8b7a" stroke="#4a7a68" stroke-width="2"/>
  
  <rect x="175" y="75" width="50" height="50" rx="4" fill="#c94a4a"/>
  <rect x="193" y="85" width="14" height="30" rx="2" fill="#ffffff"/>
  <rect x="183" y="95" width="34" height="10" rx="2" fill="#ffffff"/>
  
  <g>
    <rect x="75" y="135" width="35" height="50" rx="2" fill="#87a08b" stroke="#5c7a62" stroke-width="1.5"/>
    <line x1="92.5" y1="135" x2="92.5" y2="185" stroke="#5c7a62" stroke-width="1"/>
    
    <rect x="125" y="135" width="35" height="50" rx="2" fill="#87a08b" stroke="#5c7a62" stroke-width="1.5"/>
    <line x1="142.5" y1="135" x2="142.5" y2="185" stroke="#5c7a62" stroke-width="1"/>
    
    <rect x="240" y="135" width="35" height="50" rx="2" fill="#87a08b" stroke="#5c7a62" stroke-width="1.5"/>
    <line x1="257.5" y1="135" x2="257.5" y2="185" stroke="#5c7a62" stroke-width="1"/>
    
    <rect x="290" y="135" width="35" height="50" rx="2" fill="#87a08b" stroke="#5c7a62" stroke-width="1.5"/>
    <line x1="307.5" y1="135" x2="307.5" y2="185" stroke="#5c7a62" stroke-width="1"/>
  </g>
  
  <rect x="170" y="150" width="60" height="105" rx="4" fill="#5c8b7a" stroke="#4a7a68" stroke-width="2"/>
  <rect x="178" y="158" width="18" height="25" fill="#87c4b0" opacity="0.8"/>
  <rect x="204" y="158" width="18" height="25" fill="#87c4b0" opacity="0.8"/>
  <circle cx="215" cy="210" r="4" fill="#c9a962"/>
  
  <g>
    <rect x="75" y="200" width="35" height="40" rx="2" fill="#87a08b" stroke="#5c7a62" stroke-width="1.5"/>
    <line x1="92.5" y1="200" x2="92.5" y2="240" stroke="#5c7a62" stroke-width="1"/>
    
    <rect x="125" y="200" width="35" height="40" rx="2" fill="#87a08b" stroke="#5c7a62" stroke-width="1.5"/>
    <line x1="142.5" y1="200" x2="142.5" y2="240" stroke="#5c7a62" stroke-width="1"/>
    
    <rect x="240" y="200" width="35" height="40" rx="2" fill="#87a08b" stroke="#5c7a62" stroke-width="1.5"/>
    <line x1="257.5" y1="200" x2="257.5" y2="240" stroke="#5c7a62" stroke-width="1"/>
    
    <rect x="290" y="200" width="35" height="40" rx="2" fill="#87a08b" stroke="#5c7a62" stroke-width="1.5"/>
    <line x1="307.5" y1="200" x2="307.5" y2="240" stroke="#5c7a62" stroke-width="1"/>
  </g>
  
  <circle cx="350" cy="50" r="25" fill="#c9a962" opacity="0.3"/>
  
  <text x="200" y="285" text-anchor="middle" fill="#5c7a62" font-family="serif" font-size="12" font-style="italic">Skilled Nursing Facility</text>
</svg>
