<svg width="800" height="600" viewBox="0 0 800 600" xmlns="http://www.w3.org/2000/svg">
  <rect width="800" height="600" fill="#e6f7f5"/>
  
  <g transform="translate(400, 250)">
    
    <path d="M-80 50 L-80 -10 L0 -60 L80 -10 L80 50 Z" 
          fill="none" 
          stroke="#0d9488" 
          stroke-width="3"
          stroke-linecap="round"
          stroke-linejoin="round"/>
    
    <path d="M-100 -10 L0 -80 L100 -10" 
          fill="none" 
          stroke="#0d9488" 
          stroke-width="3"
          stroke-linecap="round"
          stroke-linejoin="round"/>
    
    <rect x="-15" y="5" width="30" height="45" rx="3"
          fill="none" 
          stroke="#0d9488" 
          stroke-width="2"/>
    <circle cx="10" cy="28" r="3" fill="#0d9488"/>
    
    <rect x="-55" y="-5" width="25" height="25" rx="2"
          fill="none" 
          stroke="#0d9488" 
          stroke-width="2"/>
    <line x1="-42.5" y1="-5" x2="-42.5" y2="20" stroke="#0d9488" stroke-width="1.5"/>
    <line x1="-55" y1="7.5" x2="-30" y2="7.5" stroke="#0d9488" stroke-width="1.5"/>
    
    <rect x="30" y="-5" width="25" height="25" rx="2"
          fill="none" 
          stroke="#0d9488" 
          stroke-width="2"/>
    <line x1="42.5" y1="-5" x2="42.5" y2="20" stroke="#0d9488" stroke-width="1.5"/>
    <line x1="30" y1="7.5" x2="55" y2="7.5" stroke="#0d9488" stroke-width="1.5"/>
    
    <path d="M0 -25 
             C-3 -30 -10 -30 -10 -22 
             C-10 -15 0 -8 0 -8 
             C0 -8 10 -15 10 -22 
             C10 -30 3 -30 0 -25 Z" 
          fill="#0d9488" 
          opacity="0.5"/>
    
  </g>
  
  <text x="400" y="420" text-anchor="middle" font-family="Georgia, serif" font-size="36" font-weight="500" fill="#0d9488">
    Okapi Care Network
  </text>
  
  <text x="400" y="460" text-anchor="middle" font-family="Arial, sans-serif" font-size="16" fill="#5f9ea0">
    Care Facility
  </text>
  
  <line x1="300" y1="485" x2="500" y2="485" stroke="#0d9488" stroke-width="1" opacity="0.3"/>
  
  <text x="400" y="520" text-anchor="middle" font-family="Arial, sans-serif" font-size="14" fill="#5f9ea0" letter-spacing="3">
    WASHINGTON STATE
  </text>
  
</svg>